<svg width="1859" height="1203" viewBox="0 0 1859 1203" fill="none" xmlns="http://www.w3.org/2000/svg">
<g clip-path="url(#clip0_10_2)">
<rect width="1859" height="1203" fill="#0C0C0C"/>
<path d="M156.019 520.754C97.3279 586.77 36.721 639.869 -13.8111 672.355C-39.0803 688.6 -61.8055 699.675 -80.4957 704.643C-99.2088 709.618 -113.737 708.439 -122.779 700.4C-131.821 692.361 -134.694 678.071 -131.944 658.904C-129.198 639.761 -120.861 615.895 -107.686 588.898C-81.3395 534.91 -35.7015 468.503 22.9893 402.486C81.6802 336.47 142.287 283.37 192.819 250.884C218.088 234.639 240.813 223.565 259.504 218.596C278.217 213.622 292.746 214.801 301.787 222.84C310.829 230.878 313.702 245.169 310.952 264.336C308.206 283.479 299.869 307.345 286.694 334.342C260.347 388.33 214.71 454.737 156.019 520.754Z" stroke="#717171" stroke-opacity="0.94"/>
<path d="M66.0187 998.754C7.32786 1064.77 -53.279 1117.87 -103.811 1150.36C-129.08 1166.6 -151.805 1177.67 -170.496 1182.64C-189.209 1187.62 -203.737 1186.44 -212.779 1178.4C-221.821 1170.36 -224.694 1156.07 -221.944 1136.9C-219.198 1117.76 -210.861 1093.9 -197.686 1066.9C-171.339 1012.91 -125.701 946.503 -67.0107 880.486C-8.31983 814.47 52.287 761.37 102.819 728.884C128.088 712.639 150.813 701.565 169.504 696.596C188.217 691.622 202.746 692.801 211.787 700.84C220.829 708.878 223.702 723.169 220.952 742.336C218.206 761.479 209.869 785.345 196.694 812.342C170.347 866.33 124.71 932.737 66.0187 998.754Z" stroke="#717171" stroke-opacity="0.94"/>
<path d="M1736.02 520.754C1677.33 586.77 1616.72 639.869 1566.19 672.355C1540.92 688.6 1518.19 699.675 1499.5 704.643C1480.79 709.618 1466.26 708.439 1457.22 700.4C1448.18 692.361 1445.31 678.071 1448.06 658.904C1450.8 639.761 1459.14 615.895 1472.31 588.898C1498.66 534.91 1544.3 468.503 1602.99 402.486C1661.68 336.47 1722.29 283.37 1772.82 250.884C1798.09 234.639 1820.81 223.565 1839.5 218.596C1858.22 213.622 1872.75 214.801 1881.79 222.84C1890.83 230.878 1893.7 245.169 1890.95 264.336C1888.21 283.479 1879.87 307.345 1866.69 334.342C1840.35 388.33 1794.71 454.737 1736.02 520.754Z" stroke="#717171" stroke-opacity="0.94"/>
<path d="M1646.02 998.754C1587.33 1064.77 1526.72 1117.87 1476.19 1150.36C1450.92 1166.6 1428.19 1177.67 1409.5 1182.64C1390.79 1187.62 1376.26 1186.44 1367.22 1178.4C1358.18 1170.36 1355.31 1156.07 1358.06 1136.9C1360.8 1117.76 1369.14 1093.9 1382.31 1066.9C1408.66 1012.91 1454.3 946.503 1512.99 880.486C1571.68 814.47 1632.29 761.37 1682.82 728.884C1708.09 712.639 1730.81 701.565 1749.5 696.596C1768.22 691.622 1782.75 692.801 1791.79 700.84C1800.83 708.878 1803.7 723.169 1800.95 742.336C1798.21 761.479 1789.87 785.345 1776.69 812.342C1750.35 866.33 1704.71 932.737 1646.02 998.754Z" stroke="#717171" stroke-opacity="0.94"/>
<line y1="437.5" x2="1728" y2="437.5" stroke="#565454" stroke-opacity="0.77"/>
<line y1="587.5" x2="1728" y2="587.5" stroke="#565454" stroke-opacity="0.77"/>
<line y1="747.5" x2="1728" y2="747.5" stroke="#565454" stroke-opacity="0.77"/>
<line x1="409.5" y1="330" x2="409.5" y2="989" stroke="#565454" stroke-opacity="0.77"/>
<line x1="769.5" y1="330" x2="769.5" y2="989" stroke="#3D3D3D"/>
<line x1="1119.5" y1="330" x2="1119.5" y2="989" stroke="#3D3D3D"/>
<circle cx="409" cy="748" r="14" fill="#494949" fill-opacity="0.78"/>
<circle cx="409" cy="588" r="14" fill="#494949" fill-opacity="0.78"/>
<circle cx="409" cy="438" r="14" fill="#494949" fill-opacity="0.78"/>
<circle cx="769" cy="438" r="14" fill="#494949" fill-opacity="0.78"/>
<circle cx="769" cy="588" r="14" fill="#494949" fill-opacity="0.78"/>
<circle cx="769" cy="748" r="14" fill="#494949" fill-opacity="0.78"/>
<circle cx="1119" cy="748" r="14" fill="#494949" fill-opacity="0.78"/>
<circle cx="1119" cy="588" r="14" fill="#494949" fill-opacity="0.78"/>
<circle cx="1119" cy="438" r="14" fill="#494949" fill-opacity="0.78"/>
<g filter="url(#filter0_f_10_2)">
<circle cx="188" cy="829" r="188" fill="#FC63FF"/>
</g>
<g filter="url(#filter1_f_10_2)">
<circle cx="1580" cy="660" r="188" fill="#FC63FF"/>
</g>
<g filter="url(#filter2_f_10_2)">
<circle cx="1445.5" cy="972.5" r="224.5" fill="white" fill-opacity="0.7"/>
</g>
<g filter="url(#filter3_f_10_2)">
<circle cx="465.5" cy="972.5" r="224.5" fill="white" fill-opacity="0.7"/>
</g>
</g>
<defs>
<filter id="filter0_f_10_2" x="-354" y="287" width="1084" height="1084" filterUnits="userSpaceOnUse" color-interpolation-filters="sRGB">
<feFlood flood-opacity="0" result="BackgroundImageFix"/>
<feBlend mode="normal" in="SourceGraphic" in2="BackgroundImageFix" result="shape"/>
<feGaussianBlur stdDeviation="177" result="effect1_foregroundBlur_10_2"/>
</filter>
<filter id="filter1_f_10_2" x="1038" y="118" width="1084" height="1084" filterUnits="userSpaceOnUse" color-interpolation-filters="sRGB">
<feFlood flood-opacity="0" result="BackgroundImageFix"/>
<feBlend mode="normal" in="SourceGraphic" in2="BackgroundImageFix" result="shape"/>
<feGaussianBlur stdDeviation="177" result="effect1_foregroundBlur_10_2"/>
</filter>
<filter id="filter2_f_10_2" x="787" y="314" width="1317" height="1317" filterUnits="userSpaceOnUse" color-interpolation-filters="sRGB">
<feFlood flood-opacity="0" result="BackgroundImageFix"/>
<feBlend mode="normal" in="SourceGraphic" in2="BackgroundImageFix" result="shape"/>
<feGaussianBlur stdDeviation="217" result="effect1_foregroundBlur_10_2"/>
</filter>
<filter id="filter3_f_10_2" x="-193" y="314" width="1317" height="1317" filterUnits="userSpaceOnUse" color-interpolation-filters="sRGB">
<feFlood flood-opacity="0" result="BackgroundImageFix"/>
<feBlend mode="normal" in="SourceGraphic" in2="BackgroundImageFix" result="shape"/>
<feGaussianBlur stdDeviation="217" result="effect1_foregroundBlur_10_2"/>
</filter>
<clipPath id="clip0_10_2">
<rect width="1859" height="1203" fill="white"/>
</clipPath>
</defs>
</svg>
